<svg width="162" height="116" viewBox="0 0 162 116" fill="none" xmlns="http://www.w3.org/2000/svg">
<circle cx="3" cy="3" r="3" fill="#B4D7FF"/>
<circle cx="29" cy="3" r="3" fill="#B4D7FF"/>
<circle cx="55" cy="3" r="3" fill="#B4D7FF"/>
<circle cx="81" cy="3" r="3" fill="#B4D7FF"/>
<circle cx="107" cy="3" r="3" fill="#B4D7FF"/>
<circle cx="133" cy="3" r="3" fill="#B4D7FF"/>
<circle cx="159" cy="3" r="3" fill="#B4D7FF"/>
<circle cx="3" cy="25" r="3" fill="#B4D7FF"/>
<circle cx="29" cy="25" r="3" fill="#B4D7FF"/>
<circle cx="55" cy="25" r="3" fill="#B4D7FF"/>
<circle cx="81" cy="25" r="3" fill="#B4D7FF"/>
<circle cx="107" cy="25" r="3" fill="#B4D7FF"/>
<circle cx="133" cy="25" r="3" fill="#B4D7FF"/>
<circle cx="159" cy="25" r="3" fill="#B4D7FF"/>
<circle cx="3" cy="47" r="3" fill="#B4D7FF"/>
<circle cx="29" cy="47" r="3" fill="#B4D7FF"/>
<circle cx="55" cy="47" r="3" fill="#B4D7FF"/>
<circle cx="81" cy="47" r="3" fill="#B4D7FF"/>
<circle cx="107" cy="47" r="3" fill="#B4D7FF"/>
<circle cx="133" cy="47" r="3" fill="#B4D7FF"/>
<circle cx="159" cy="47" r="3" fill="#B4D7FF"/>
<circle cx="3" cy="69" r="3" fill="#B4D7FF"/>
<circle cx="29" cy="69" r="3" fill="#B4D7FF"/>
<circle cx="55" cy="69" r="3" fill="#B4D7FF"/>
<circle cx="81" cy="69" r="3" fill="#B4D7FF"/>
<circle cx="107" cy="69" r="3" fill="#B4D7FF"/>
<circle cx="133" cy="69" r="3" fill="#B4D7FF"/>
<circle cx="159" cy="69" r="3" fill="#B4D7FF"/>
<circle cx="3" cy="91" r="3" fill="#B4D7FF"/>
<circle cx="29" cy="91" r="3" fill="#B4D7FF"/>
<circle cx="55" cy="91" r="3" fill="#B4D7FF"/>
<circle cx="81" cy="91" r="3" fill="#B4D7FF"/>
<circle cx="107" cy="91" r="3" fill="#B4D7FF"/>
<circle cx="133" cy="91" r="3" fill="#B4D7FF"/>
<circle cx="159" cy="91" r="3" fill="#B4D7FF"/>
<circle cx="3" cy="113" r="3" fill="#B4D7FF"/>
<circle cx="29" cy="113" r="3" fill="#B4D7FF"/>
<circle cx="55" cy="113" r="3" fill="#B4D7FF"/>
<circle cx="81" cy="113" r="3" fill="#B4D7FF"/>
<circle cx="107" cy="113" r="3" fill="#B4D7FF"/>
<circle cx="133" cy="113" r="3" fill="#B4D7FF"/>
<circle cx="159" cy="113" r="3" fill="#B4D7FF"/>
</svg>
